<svg width="43" height="42" viewBox="0 0 43 42" fill="none" xmlns="http://www.w3.org/2000/svg">
<path d="M43 21.3184C43 25.0517 41.968 28.5388 40.119 31.5746H2.881C1.032 28.5388 0 25.0517 0 21.3184C0 17.5851 1.032 14.098 2.881 11.0621H40.119C41.968 14.098 43 17.5851 43 21.3184Z" fill="white"/>
<path d="M40.1169 11.0621H2.87891C6.44791 5.1545 13.0269 1.13405 20.5949 0.805847H22.4009C29.9689 1.13405 36.5479 5.1545 40.1169 11.0621Z" fill="#143DAE"/>
<path d="M40.1169 31.5746C36.5479 37.4823 29.9689 41.5437 22.4009 41.8309H20.5949C13.0269 41.5437 6.44791 37.4823 2.87891 31.5746H40.1169Z" fill="#143DAE"/>
<path d="M28.4632 17.2979H23.6473L21.4973 13.7697L19.3473 17.2979H14.5312L16.9393 21.3183L14.5312 25.3388H19.3473L21.4973 28.8669L23.6473 25.3388H28.5063L26.0553 21.3183L28.4632 17.2979ZM27.4313 17.8722L25.7113 20.744L23.9913 17.8722H27.4313ZM21.4973 14.9184L22.9593 17.2979H20.0783L21.4973 14.9184ZM15.5633 17.8722H19.0462L17.3263 20.744L15.5633 17.8722ZM15.5633 24.7644L17.2833 21.8927L19.0033 24.7644H15.5633ZM21.4973 27.7182L20.0352 25.3388H22.9163L21.4973 27.7182ZM23.3032 24.7644H19.7343L17.6273 21.3183L19.6912 17.8722H23.2603L25.3673 21.3183L23.3032 24.7644ZM27.4313 24.7644H23.9482L25.6682 21.8927L27.4313 24.7644Z" fill="#2B4A9E"/>
</svg>
