<svg width="255" height="48" viewBox="0 0 255 48" fill="none" xmlns="http://www.w3.org/2000/svg">
<path d="M74 45C86.1503 45 96 35.1503 96 23C96 10.8497 86.1503 1 74 1C61.8497 1 52 10.8497 52 23C52 35.1503 61.8497 45 74 45Z" fill="#033ACB" stroke="white" stroke-width="2"/>
<path d="M78 20.0601H75.616V18.4758C75.616 17.8808 76.0052 17.7421 76.2793 17.7421C76.5528 17.7421 77.9616 17.7421 77.9616 17.7421V15.1263L75.6447 15.1172C73.0727 15.1172 72.4874 17.0681 72.4874 18.3165V20.0601H71V22.7554H72.4874C72.4874 26.2145 72.4874 30.3823 72.4874 30.3823H75.616C75.616 30.3823 75.616 26.1734 75.616 22.7554H77.7271L78 20.0601Z" fill="white"/>
<path d="M43 23.3188C43 27.0521 41.968 30.5392 40.119 33.575H2.881C1.032 30.5392 0 27.0521 0 23.3188C0 19.5855 1.032 16.0984 2.881 13.0625H40.119C41.968 16.0984 43 19.5855 43 23.3188Z" fill="white"/>
<path d="M40.1169 13.0619H2.87891C6.44791 7.15432 13.0269 3.13387 20.5949 2.80566H22.4009C29.9689 3.13387 36.5479 7.15432 40.1169 13.0619Z" fill="#143DAE"/>
<path d="M40.1169 33.5742C36.5479 39.4819 29.9689 43.5433 22.4009 43.8305H20.5949C13.0269 43.5433 6.44791 39.4819 2.87891 33.5742H40.1169Z" fill="#143DAE"/>
<path d="M28.4632 19.2977H23.6474L21.4973 15.7695L19.3473 19.2977H14.5312L16.9394 23.3181L14.5312 27.3386H19.3473L21.4973 30.8667L23.6474 27.3386H28.5063L26.0553 23.3181L28.4632 19.2977ZM27.4313 19.872L25.7113 22.7438L23.9914 19.872H27.4313ZM21.4973 16.9182L22.9593 19.2977H20.0784L21.4973 16.9182ZM15.5633 19.872H19.0462L17.3263 22.7438L15.5633 19.872ZM15.5633 26.7642L17.2833 23.8925L19.0033 26.7642H15.5633ZM21.4973 29.718L20.0352 27.3386H22.9163L21.4973 29.718ZM23.3032 26.7642H19.7344L17.6273 23.3181L19.6912 19.872H23.2603L25.3673 23.3181L23.3032 26.7642ZM27.4313 26.7642H23.9482L25.6682 23.8925L27.4313 26.7642Z" fill="#2B4A9E"/>
<path d="M233 47.3125C244.771 47.3125 254.312 37.7706 254.312 26C254.312 14.2294 244.771 4.6875 233 4.6875C221.229 4.6875 211.688 14.2294 211.688 26C211.688 37.7706 221.229 47.3125 233 47.3125Z" fill="#033ACB" stroke="white"/>
<path d="M228.139 20.854L238.834 31.549C239.103 31.8175 239.103 32.2528 238.834 32.5213C238.566 32.7898 238.13 32.7898 237.862 32.5213L227.167 21.8263C226.898 21.5578 226.898 21.1225 227.167 20.854C227.435 20.5855 227.871 20.5855 228.139 20.854Z" fill="white"/>
<path d="M227.167 31.5493L237.862 20.8543C238.13 20.5858 238.565 20.5858 238.834 20.8543C239.102 21.1228 239.102 21.5581 238.834 21.8266L228.139 32.5216C227.87 32.7901 227.435 32.7901 227.167 32.5216C226.898 32.2531 226.898 31.8178 227.167 31.5493Z" fill="white"/>
<path d="M181 47.3125C192.771 47.3125 202.312 37.7706 202.312 26C202.312 14.2294 192.771 4.6875 181 4.6875C169.229 4.6875 159.688 14.2294 159.688 26C159.688 37.7706 169.229 47.3125 181 47.3125Z" fill="#033ACB" stroke="white"/>
<path d="M173.438 19.125H188.562C188.942 19.125 189.25 19.4328 189.25 19.8125C189.25 20.1922 188.942 20.5 188.562 20.5H173.438C173.058 20.5 172.75 20.1922 172.75 19.8125C172.75 19.4328 173.058 19.125 173.438 19.125Z" fill="white"/>
<path d="M173.438 26H188.562C188.942 26 189.25 26.3078 189.25 26.6875C189.25 27.0672 188.942 27.375 188.562 27.375H173.438C173.058 27.375 172.75 27.0672 172.75 26.6875C172.75 26.3078 173.058 26 173.438 26Z" fill="white"/>
<path d="M173.438 32.875H188.562C188.942 32.875 189.25 33.1828 189.25 33.5625C189.25 33.9422 188.942 34.25 188.562 34.25H173.438C173.058 34.25 172.75 33.9422 172.75 33.5625C172.75 33.1828 173.058 32.875 173.438 32.875Z" fill="white"/>
<path d="M128 47C140.15 47 150 37.1503 150 25C150 12.8497 140.15 3 128 3C115.85 3 106 12.8497 106 25C106 37.1503 115.85 47 128 47Z" fill="#033ACB" stroke="white" stroke-width="2"/>
<path d="M136.946 19.5527L134.079 32.5068C133.862 33.4211 133.298 33.6485 132.497 33.2178L128.128 30.1337L126.02 32.076C125.787 32.2995 125.591 32.4865 125.142 32.4865L125.456 28.2239L133.553 21.2146C133.905 20.914 133.476 20.7474 133.006 21.048L122.996 27.0863L118.686 25.794C117.749 25.5137 117.732 24.896 118.881 24.4653L135.737 18.2444C136.517 17.9641 137.2 18.4109 136.946 19.5527Z" fill="white"/>
</svg>
